/vscmnt/brussel_pixiu_data/_data_brussel/112/vsc11236/PredSimResults/SUBJ07mtu3D/weighted-LRposFixed/expIG/worker_05.mot
version=1
nRows=8
nColumns=50
inDegrees=yes
endheader
                time	         pelvis_tilt	         pelvis_list	     pelvis_rotation	           pelvis_tx	           pelvis_ty	           pelvis_tz	       hip_flexion_r	     hip_adduction_r	      hip_rotation_r	        knee_angle_r	       ankle_angle_r	         mtp_angle_r	       hip_flexion_l	     hip_adduction_l	      hip_rotation_l	        knee_angle_l	       ankle_angle_l	         mtp_angle_l	    lumbar_extension	      lumbar_bending	     lumbar_rotation	 ercspn_r/activation	 intobl_r/activation	 extobl_r/activation	    abd_r/activation	    add_r/activation	hamstrings_r/activation	bifemsh_r/activation	glut_max_r/activation	iliopsoas_r/activation	rect_fem_r/activation	  vasti_r/activation	gastroc_r/activation	 soleus_r/activation	tib_ant_r/activation	 ercspn_l/activation	 intobl_l/activation	 extobl_l/activation	    abd_l/activation	    add_l/activation	hamstrings_l/activation	bifemsh_l/activation	glut_max_l/activation	iliopsoas_l/activation	rect_fem_l/activation	  vasti_l/activation	gastroc_l/activation	 soleus_l/activation	tib_ant_l/activation	
          1.18304151	         -6.68823144	         -3.82543848	         10.11453935	          1.33683691	          0.84671556	         -0.01525495	         31.09469477	         -0.72400471	         -8.54799452	         -4.23924641	          7.10040613	          0.24625702	        -11.63872907	         -4.31794756	          6.10670401	         -6.96947104	          8.95282659	         27.52556310	         -5.49374015	          1.54395209	         -3.18034583	          0.09362117	          0.18352258	          0.02944030	          0.01197173	          0.15153573	          0.05004990	          0.18129612	          0.01390391	          0.07563770	          0.00999999	          0.00999999	          0.01371370	          0.00999999	          0.27221453	          0.03613485	          0.00999999	          0.00999999	          0.04189364	          0.06176761	          0.03180608	          0.13821261	          0.03877427	          0.41432997	          0.00999999	          0.00999999	          0.30734822	          0.27449094	          0.01715817	
          1.19487193	         -6.77254174	         -3.66474113	         10.03520720	          1.35283308	          0.84475113	         -0.01482412	         31.24377525	         -0.58211748	         -7.72395438	         -6.12062462	          6.78650675	          0.23785696	        -11.74645296	         -4.17490796	          5.54432807	         -8.71320665	          8.36546019	         29.24028364	         -5.29486332	          2.01760410	         -3.25051523	          0.07820183	          0.15939578	          0.02459151	          0.00999999	          0.20961158	          0.04740423	          0.15143679	          0.07652140	          0.06318023	          0.00999999	          0.00999999	          0.02299403	          0.01943168	          0.27899893	          0.08851218	          0.00999999	          0.00999999	          0.03499379	          0.11258146	          0.02656764	          0.11544910	          0.03238818	          0.42929943	          0.00999999	          0.00999999	          0.26369949	          0.25826109	          0.01433223	
          1.20670234	         -6.83882224	         -3.50408210	          9.89401626	          1.36915672	          0.84298231	         -0.01435520	         31.18173295	         -0.44714617	         -6.87175155	         -7.83199752	          6.44027650	          0.23154636	        -11.67538314	         -4.01305773	          4.93218187	        -10.86182869	          7.65321986	         30.93802816	         -5.07779969	          2.51483218	         -3.29973877	          0.07504818	          0.13314341	          0.02054130	          0.05972039	          0.20147126	          0.05572317	          0.12649527	          0.10129430	          0.05277449	          0.00999999	          0.00999999	          0.01920693	          0.01623129	          0.32169463	          0.11210157	          0.00999999	          0.00999999	          0.02923034	          0.11034615	          0.02371882	          0.09643472	          0.02705387	          0.41446038	          0.00999999	          0.00999999	          0.22026838	          0.23957292	          0.01197173	
          1.21853276	         -6.88895995	         -3.33939814	          9.69188236	          1.38559278	          0.84157090	         -0.01378524	         30.94348884	         -0.28799285	         -6.10357291	         -9.24661277	          6.01782751	          0.21608830	        -11.35844779	         -3.83408322	          4.27896475	        -13.48821787	          6.75696540	         32.54775630	         -4.86407665	          3.01708662	         -3.32673671	          0.08446851	          0.11121479	          0.01715817	          0.10409186	          0.20840967	          0.05258899	          0.10566159	          0.13387450	          0.04408257	          0.00999999	          0.00999999	          0.01604357	          0.01355801	          0.34315785	          0.14228835	          0.00999999	          0.00999999	          0.02441612	          0.11686965	          0.02406467	          0.08055200	          0.02259812	          0.39102848	          0.00999999	          0.00999999	          0.18399034	          0.20262801	          0.00999999	
          1.23036317	         -6.92282315	         -3.17847393	          9.43388701	          1.40192551	          0.84064130	         -0.01312180	         30.62209232	         -0.10482434	         -5.43526978	        -10.54878628	          5.70708506	          0.20376265	        -10.75377362	         -3.65090027	          3.57890767	        -16.62180561	          5.66987654	         33.86841206	         -4.67084360	          3.53102826	         -3.32892015	          0.08155278	          0.09289780	          0.01433223	          0.13521720	          0.20254375	          0.04905628	          0.08825921	          0.15183879	          0.03682221	          0.00999999	          0.02287962	          0.01340120	          0.01178056	          0.35418127	          0.17146147	          0.00999999	          0.00999999	          0.02039480	          0.12374243	          0.02436084	          0.06728514	          0.01887622	          0.35002660	          0.00999999	          0.00999999	          0.15368727	          0.16925533	          0.00999999	
          1.24219359	         -6.94110282	         -3.02414646	          9.12300898	          1.41798431	          0.84029023	         -0.01238493	         30.26630557	          0.09200503	         -4.86418194	        -11.79512573	          5.50045358	          0.19169453	         -9.84533668	         -3.47559577	          2.81862119	        -20.24862260	          4.42502040	         34.58054181	         -4.51079051	          4.05780005	         -3.30464802	          0.07098008	          0.07759760	          0.01197172	          0.14751377	          0.17621965	          0.04884995	          0.07372299	          0.14327851	          0.03075762	          0.00999999	          0.10699762	          0.01119404	          0.00999999	          0.36327599	          0.19063368	          0.00999999	          0.00999999	          0.01703580	          0.14263611	          0.02207657	          0.05620334	          0.01576732	          0.29237749	          0.00999999	          0.00999999	          0.12837510	          0.14137910	          0.00999999	
          1.25402400	         -6.94633301	         -2.86651128	          8.75897598	          1.43368294	          0.84062324	         -0.01160379	         29.83894228	          0.29073019	         -4.37622776	        -12.89938106	          5.40654959	          0.17887684	         -8.64822965	         -3.31045394	          1.99646831	        -24.29138843	          2.97167855	         34.47961070	         -4.39019921	          4.58453294	         -3.25221773	          0.05928971	          0.06481734	          0.00999999	          0.14721504	          0.14719641	          0.04966617	          0.06158087	          0.12626813	          0.02569186	          0.00999999	          0.17580397	          0.00999999	          0.01000000	          0.35959722	          0.19670453	          0.00999999	          0.00999999	          0.01423001	          0.15597845	          0.01844058	          0.04884235	          0.01317046	          0.24422314	          0.00999999	          0.00999999	          0.10723181	          0.11809407	          0.00999999	
          1.26585442	         -6.94103016	         -2.68978737	          8.34097911	          1.44900932	          0.84166439	         -0.01080596	         29.29172204	          0.47794131	         -3.93511468	        -13.78216323	          5.47434515	          0.16897555	         -7.21140441	         -3.15154367	          1.13665120	        -28.58314652	          1.12672932	         33.64607875	         -4.30953097	          5.09251695	         -3.17018027	          0.04952474	          0.05414197	          0.00999999	          0.14741644	          0.12295327	          0.04961748	          0.05143855	          0.10547187	          0.02146043	          0.00999999	          0.21154125	          0.00999999	          0.00999999	          0.34616196	          0.19474389	          0.00999999	          0.00999999	          0.01188634	          0.16337073	          0.01540343	          0.05747203	          0.01100129	          0.20399977	          0.00999999	          0.00999999	          0.08957082	          0.09864407	          0.00999999	
